<svg xmlns="http://www.w3.org/2000/svg" viewBox="0 0 229.59997 216">
  <ellipse fill="#9AA5A4" opacity="0.3" cx="121.6" cy="108.0" rx="108.0" ry="108.0"/>
  <ellipse fill="#1080DD" cx="108.0" cy="108.0" rx="108.0" ry="108.0"/>
  <path fill="#0667B7" fill-rule="nonzero" d="m 107.99999 0 c 60 0 108 48 108 108 0 60 -48 108 -108 108"/>
  <path fill="#0070CC" fill-rule="nonzero" d="m 31.999988 32 c 42.4 -42.4 110.400002 -42.4 152.800002 0 42.4 42.4 42.4 110.4 0 152.8"/>
  <path fill="rgba(6,6,6,0.502)" fill-rule="nonzero" d="m 159.99999 110.4 h -6.4 V 72.8 c 0 -15.2 -12 -26.4 -27.2 -26.4 h -18.4 c -15.200002 0 -28.000002 12 -28.000002 27.2 0 4 3.2 7.2 8 7.2 4 0 8 -2.4 8 -7.2 0 -7.2 5.600002 -12 12.800002 -12 h 18.4 c 7.2 0 11.2 3.2 11.2 10.4 v 38.4 H 75.199988 c -4 0 -8.8 -0.8 -8.8 3.2 v 52.8 c 0 4 4.8 8 8.8 8 h 85.600002 c 4 0 9.6 -4 9.6 -8 v -52.8 c -0.8 -4 -6.4 -3.2 -10.4 -3.2 z"/>
  <path fill="#0667B7" fill-rule="nonzero" d="m 152.79999 94.4 h -7.2 V 60.8 c 0 -15.2 -11.2 -30.4 -27.2 -30.4 H 99.999988 c -15.2 0 -28 13.6 -28 29.6 0 4 3.2 8.8 8 8.8 4.8 0 8 -4 8 -8.8 0 -7.2 5.6 -13.6 12.800002 -13.6 h 18.4 c 7.2 0 11.2 8 11.2 14.4 V 94.4 H 67.199988 c -4 0 -8.8 3.2 -8.8 7.2 v 48 c 0 4 3.2 8.8 7.2 8.8 h 90.400002 c 4 0 6.4 -3.2 6.4 -7.2 v -49.6 c -0.8 -4 -6.4 -7.2 -9.6 -7.2 z"/>
  <ellipse fill="rgba(255,255,255,0.502)" cx="119.5" cy="132.0" rx="10.5" ry="10.0"/>
</svg>